<?xml version="1.0" encoding="UTF-8"?>
<!DOCTYPE svg PUBLIC "-//W3C//DTD SVG 1.1//EN" "http://www.w3.org/Graphics/SVG/1.1/DTD/svg11.dtd">
<!-- Creator: CorelDRAW X8 -->
<svg xmlns="http://www.w3.org/2000/svg" xml:space="preserve" width="80.557mm" height="34.29mm" version="1.1" style="shape-rendering:geometricPrecision; text-rendering:geometricPrecision; image-rendering:optimizeQuality; fill-rule:evenodd; clip-rule:evenodd"
viewBox="0 0 8056 3429"
 xmlns:xlink="http://www.w3.org/1999/xlink">
 <defs>
  <style type="text/css">
   <![CDATA[
    .fil1 {fill:#434242}
    .fil2 {fill:#EC691F}
    .fil0 {fill:#434242;fill-rule:nonzero}
   ]]>
  </style>
 </defs>
 <g id="Слой_x0020_1">
  <metadata id="CorelCorpID_0Corel-Layer"/>
  <g id="_2919461257568">
   <path class="fil0" d="M2722 2978l0 340 51 0 0 -32 130 -170c7,-10 13,-18 17,-24 4,-7 8,-11 9,-15 2,-4 4,-6 4,-8 0,5 -1,11 -1,17 -1,6 -1,11 -1,17 0,6 0,10 0,14l0 201 50 0 0 -340 -50 0 0 29 -128 169c-3,5 -7,10 -11,15 -3,5 -7,11 -10,17 -4,6 -7,13 -11,21 0,-6 1,-11 1,-15 0,-4 0,-7 1,-10 0,-2 0,-5 0,-9 0,-3 0,-8 0,-13l0 -204 -51 0zm367 0l0 340 51 0 0 -157 158 0 0 157 50 0 0 -340 -50 0 0 142 -158 0 0 -142 -51 0zm313 0l0 41 107 0 0 299 51 0 0 -299 107 0 0 -41 -265 0zm542 237c-2,7 -5,13 -9,19 -3,7 -7,12 -12,18 -4,4 -9,9 -16,13 -6,5 -14,8 -23,11 -9,3 -20,5 -32,5 -21,0 -38,-5 -53,-15 -16,-9 -27,-24 -36,-45 -4,-9 -7,-20 -9,-31 -2,-12 -2,-23 -2,-35l247 0 0 -12c0,-9 -1,-19 -2,-31 -2,-12 -4,-25 -8,-38 -4,-12 -9,-25 -16,-37 -7,-12 -16,-23 -27,-33 -11,-10 -24,-18 -40,-24 -15,-6 -34,-9 -55,-9 -21,0 -40,4 -57,10 -17,7 -32,16 -45,27 -12,12 -23,25 -31,40 -8,16 -14,32 -19,49 -4,18 -6,36 -6,54 0,24 3,46 10,67 6,21 17,40 32,58 14,16 31,29 50,37 20,8 41,12 65,12 16,0 32,-2 46,-6 14,-4 28,-11 42,-19 14,-10 25,-22 34,-34 9,-12 16,-26 21,-40l-49 -11zm-189 -101c0,-12 2,-24 6,-36 4,-11 10,-22 17,-31 5,-6 11,-12 19,-17 7,-5 15,-9 25,-13 9,-3 19,-4 30,-4 13,0 25,2 34,6 10,4 18,9 24,15 6,6 11,12 14,18 4,6 6,12 9,19 2,7 4,14 5,21 1,8 2,15 2,22l-185 0zm372 315l0 -164 2 0c5,10 11,20 19,29 8,9 19,17 31,22 13,6 28,9 46,9 17,0 32,-3 45,-8 13,-5 24,-11 33,-19 9,-7 17,-15 23,-24 8,-11 15,-24 20,-38 6,-14 9,-29 12,-44 3,-15 4,-31 4,-46 0,-16 -2,-33 -5,-49 -3,-17 -7,-33 -14,-48 -6,-14 -14,-27 -24,-38 -10,-12 -23,-22 -39,-29 -16,-7 -34,-11 -55,-11 -14,0 -26,2 -37,7 -12,4 -21,9 -30,16 -8,7 -15,15 -21,23 -5,8 -10,16 -13,24l-1 1 0 -64 -47 0 0 451 51 0zm0 -317c0,-5 0,-12 2,-19 1,-8 4,-16 8,-25 4,-8 10,-17 18,-26 9,-9 18,-16 28,-20 10,-5 21,-7 33,-7 7,0 15,1 23,3 8,2 15,6 23,12 8,5 15,13 21,23 2,3 5,9 8,16 3,8 6,18 8,30 3,13 4,29 4,48 0,10 0,21 -2,32 -1,11 -3,22 -6,33 -3,10 -7,20 -12,29 -7,10 -14,19 -22,24 -8,6 -16,10 -24,13 -7,2 -15,3 -21,3 -7,0 -15,-1 -22,-3 -8,-2 -15,-5 -23,-9 -7,-4 -14,-10 -20,-17 -7,-8 -12,-16 -16,-24 -3,-9 -5,-17 -7,-24 -1,-8 -1,-15 -1,-21l0 -71zm316 -134l0 340 50 0 0 -157 158 0 0 157 51 0 0 -340 -51 0 0 142 -158 0 0 -142 -50 0zm590 237c-2,7 -5,13 -9,19 -3,7 -7,12 -12,18 -4,4 -9,9 -16,13 -6,5 -14,8 -23,11 -9,3 -20,5 -32,5 -21,0 -38,-5 -53,-15 -16,-9 -27,-24 -36,-45 -4,-9 -7,-20 -9,-31 -2,-12 -2,-23 -2,-35l247 0 0 -12c0,-9 -1,-19 -2,-31 -2,-12 -4,-25 -8,-38 -4,-12 -9,-25 -16,-37 -7,-12 -16,-23 -27,-33 -11,-10 -24,-18 -40,-24 -15,-6 -34,-9 -55,-9 -21,0 -40,4 -57,10 -17,7 -32,16 -45,27 -12,12 -23,25 -31,40 -8,16 -14,32 -19,49 -4,18 -6,36 -6,54 0,24 3,46 10,67 6,21 17,40 32,58 14,16 31,29 50,37 20,8 41,12 65,12 16,0 32,-2 46,-6 14,-4 28,-11 42,-19 14,-10 25,-22 34,-34 9,-12 16,-26 21,-40l-49 -11zm-189 -101c0,-12 2,-24 6,-36 4,-11 10,-22 17,-31 5,-6 11,-12 19,-17 7,-5 15,-9 25,-13 9,-3 19,-4 30,-4 13,0 25,2 34,6 10,4 18,9 24,15 6,6 11,12 14,18 4,6 6,12 9,19 2,7 4,14 5,21 1,8 2,15 2,22l-185 0zm267 -136l0 41 107 0 0 299 51 0 0 -299 107 0 0 -41 -265 0zm440 148l-142 0 0 41 142 0 0 -41zm87 -148l0 340 44 0 0 -235c0,-8 0,-16 -1,-25 0,-8 0,-17 -1,-27 4,8 6,14 8,19 2,5 4,10 5,13 2,4 4,9 5,13 2,4 4,9 6,15l95 227 26 0 88 -227c7,-19 13,-33 17,-42 5,-10 7,-15 9,-18 -1,8 -1,14 -1,19 -1,4 -1,8 -1,11 0,3 -1,6 -1,10 0,3 0,8 0,14l0 233 51 0 0 -340 -71 0 -101 260 -106 -260 -71 0zm488 94c1,-11 5,-20 10,-27 5,-8 11,-13 18,-18 7,-4 15,-7 23,-9 8,-2 16,-4 23,-4 8,-1 15,-1 20,-1 8,0 17,0 25,1 9,1 17,3 25,7 8,3 15,9 21,16 4,6 7,12 9,18 2,7 3,13 4,20 0,7 0,13 0,19l0 14 -44 0c-17,0 -34,0 -52,1 -17,1 -34,4 -50,8 -16,4 -31,11 -44,20 -6,3 -11,7 -16,12 -5,5 -10,11 -15,19 -5,7 -8,15 -11,24 -3,9 -4,19 -5,31 1,12 2,22 5,31 3,9 7,17 12,24 4,7 9,12 14,17 6,5 13,10 21,14 8,5 17,9 28,12 11,2 24,4 39,4 16,0 30,-2 42,-6 12,-3 22,-8 31,-13 9,-6 17,-12 23,-18 6,-6 10,-13 14,-18 4,-6 7,-11 8,-15 1,8 1,18 2,29 1,10 2,22 4,34l54 0c-3,-15 -6,-28 -7,-40 -1,-11 -2,-22 -2,-31l0 -131c0,-11 0,-22 -1,-33 0,-11 -2,-22 -4,-33 -2,-10 -6,-20 -11,-29 -5,-9 -12,-18 -21,-25 -8,-6 -16,-11 -25,-14 -9,-3 -18,-6 -26,-7 -9,-2 -18,-3 -26,-3 -7,-1 -14,-1 -20,-1 -19,0 -36,2 -52,4 -16,3 -30,8 -42,15 -13,7 -23,17 -32,29 -8,12 -14,27 -18,45l49 8zm178 77l0 17c0,8 -1,17 -3,26 -2,9 -5,18 -9,27 -4,9 -9,17 -14,24 -6,7 -14,14 -22,20 -8,5 -17,10 -27,13 -10,3 -21,5 -32,5 -12,0 -22,-1 -30,-4 -8,-2 -14,-5 -19,-9 -6,-4 -11,-9 -15,-14 -3,-6 -6,-11 -7,-16 -2,-6 -3,-11 -2,-15 -1,-6 0,-12 2,-19 2,-7 6,-14 11,-21 5,-6 12,-12 21,-17 6,-3 14,-6 23,-9 10,-2 21,-4 34,-5 13,-2 28,-3 46,-3l43 0zm154 -171l0 340 51 0 0 -299 154 0 0 -41 -205 0zm297 94c2,-11 6,-20 11,-27 5,-8 11,-13 18,-18 7,-4 15,-7 23,-9 8,-2 16,-4 23,-4 8,-1 15,-1 20,-1 8,0 17,0 25,1 9,1 17,3 25,7 8,3 15,9 21,16 4,6 7,12 9,18 2,7 3,13 4,20 0,7 0,13 0,19l0 14 -44 0c-17,0 -35,0 -52,1 -17,1 -34,4 -50,8 -16,4 -31,11 -45,20 -5,3 -10,7 -15,12 -6,5 -10,11 -15,19 -5,7 -8,15 -11,24 -3,9 -4,19 -5,31 1,12 2,22 5,31 3,9 7,17 12,24 4,7 9,12 14,17 6,5 12,10 21,14 8,5 17,9 28,12 11,2 24,4 39,4 16,0 30,-2 42,-6 12,-3 22,-8 31,-13 9,-6 17,-12 22,-18 7,-6 11,-13 15,-18 4,-6 7,-11 8,-15 1,8 1,18 2,29 1,10 2,22 4,34l54 0c-4,-15 -6,-28 -7,-40 -1,-11 -2,-22 -2,-31l0 -131c0,-11 0,-22 -1,-33 0,-11 -2,-22 -4,-33 -2,-10 -6,-20 -11,-29 -5,-9 -12,-18 -21,-25 -8,-6 -16,-11 -25,-14 -9,-3 -18,-6 -27,-7 -8,-2 -17,-3 -25,-3 -8,-1 -14,-1 -20,-1 -19,0 -36,2 -52,4 -16,3 -30,8 -42,15 -13,7 -23,17 -32,29 -8,12 -14,27 -18,45l48 8zm179 77l0 17c0,8 -1,17 -3,26 -2,9 -5,18 -9,27 -4,9 -9,17 -14,24 -6,7 -14,14 -22,20 -8,5 -17,10 -27,13 -10,3 -21,5 -32,5 -12,0 -22,-1 -30,-4 -8,-2 -14,-5 -19,-9 -6,-4 -11,-9 -15,-14 -3,-6 -6,-11 -7,-16 -2,-6 -3,-11 -3,-15 0,-6 1,-12 3,-19 2,-7 6,-14 11,-21 5,-6 12,-12 21,-17 6,-3 14,-6 23,-9 10,-2 21,-4 34,-5 13,-2 28,-3 46,-3l43 0zm178 -72c3,-10 6,-19 11,-26 5,-8 10,-13 15,-18 11,-8 21,-13 32,-16 12,-3 22,-5 32,-4 8,0 15,0 22,1 8,1 15,3 21,5 6,2 12,5 16,8 3,2 6,5 9,8 3,3 5,7 7,12 2,5 3,11 3,17 0,6 -1,12 -2,18 -2,6 -5,11 -9,16 -4,6 -10,10 -18,14 -5,2 -10,4 -15,5 -6,1 -11,2 -17,3 -6,0 -11,1 -16,1l-38 0 0 41 38 0c8,0 15,0 23,1 8,1 16,3 24,6 7,2 14,7 21,12 4,4 8,9 11,16 3,7 5,16 5,27 0,7 -2,14 -4,19 -2,6 -5,11 -9,15 -3,5 -7,8 -12,11 -6,3 -12,6 -19,8 -7,3 -14,4 -22,5 -7,1 -14,2 -21,2 -13,-1 -24,-2 -34,-5 -9,-2 -17,-6 -24,-10 -7,-4 -12,-8 -16,-13 -2,-2 -4,-4 -7,-8 -2,-3 -5,-8 -7,-13 -2,-5 -4,-11 -6,-18l-49 10c2,12 7,24 13,36 6,12 14,22 24,31 8,7 18,13 27,17 10,4 20,7 30,9 10,2 19,4 28,4 9,1 17,1 24,1 9,0 20,0 31,-1 11,-1 23,-4 35,-7 12,-3 23,-8 34,-15 6,-5 13,-11 20,-18 6,-7 11,-16 16,-26 4,-10 6,-22 6,-35 0,-12 -2,-23 -6,-33 -3,-10 -9,-18 -15,-25 -5,-5 -11,-9 -17,-13 -7,-4 -13,-6 -20,-9 -7,-2 -14,-3 -21,-4l0 -1c10,-1 19,-3 28,-7 8,-4 15,-9 20,-14 2,-2 5,-6 9,-11 3,-4 6,-10 9,-17 2,-8 4,-16 4,-26 0,-8 -1,-17 -4,-26 -2,-8 -7,-17 -13,-25 -6,-8 -14,-15 -25,-22 -8,-5 -17,-9 -27,-11 -10,-3 -20,-5 -30,-6 -10,-1 -20,-2 -30,-2 -14,0 -26,1 -36,3 -11,2 -19,4 -27,6 -7,2 -12,5 -16,7 -9,3 -17,9 -26,16 -8,6 -15,15 -22,25 -6,10 -11,22 -15,37l47 12zm314 -99l0 340 51 0 0 -32 129 -170c8,-10 14,-18 18,-24 4,-7 7,-11 9,-15 2,-4 3,-6 4,-8 -1,5 -1,11 -2,17 0,6 0,11 0,17 -1,6 -1,10 -1,14l0 201 51 0 0 -340 -51 0 0 29 -127 169c-4,5 -7,10 -11,15 -3,5 -7,11 -11,17 -3,6 -7,13 -10,21 0,-6 0,-11 1,-15 0,-4 0,-7 0,-10 0,-2 1,-5 1,-9 0,-3 0,-8 0,-13l0 -204 -51 0zm367 0l0 340 51 0 0 -157 157 0 0 157 51 0 0 -340 -51 0 0 142 -157 0 0 -142 -51 0z"/>
   <path class="fil0" d="M8055 1164c0,-19 -5,-37 -15,-52 -10,-15 -23,-28 -39,-37 -17,-8 -35,-13 -56,-13 -20,0 -38,5 -54,13 -16,9 -29,22 -39,37 -9,15 -15,33 -15,52l1 687 -145 0 0 -687c0,-19 -6,-36 -15,-51 -10,-15 -23,-28 -39,-37 -17,-9 -36,-14 -56,-14 -20,0 -39,5 -54,14 -17,9 -30,22 -39,37 -10,15 -15,32 -15,51l0 791c0,19 6,36 15,51 9,16 23,28 39,37 16,9 34,14 54,14l255 0 0 735c0,20 5,38 15,53 9,16 22,28 39,38 15,9 33,14 53,14l0 0c21,0 40,-5 56,-14 17,-10 30,-22 40,-38 9,-15 15,-33 15,-53l-1 -1628z"/>
   <path class="fil0" d="M6925 2320c0,-9 2,-19 5,-26 3,-8 8,-16 15,-23l257 -291c26,-29 50,-58 64,-90 14,-32 22,-68 22,-105l0 -449c0,-51 -15,-98 -40,-138 -25,-41 -61,-74 -104,-99 -44,-24 -93,-37 -148,-37 -53,0 -102,13 -146,37 -43,24 -78,58 -103,99 -26,41 -40,88 -40,138l0 214c0,19 6,38 15,54 9,15 23,28 39,37 16,8 34,14 54,14 21,0 40,-5 56,-14 16,-9 30,-22 39,-37 9,-16 15,-34 15,-54l0 -214c0,-19 7,-35 21,-48 13,-13 30,-19 50,-19 21,0 39,7 52,19 14,13 22,30 22,48l0 449c0,18 -10,35 -22,49l-255 291c-26,29 -52,58 -65,90 -14,31 -21,68 -21,105l0 463c0,19 6,38 15,53 9,15 22,28 39,37 16,10 34,14 54,15l362 0c21,-1 40,-5 56,-15 17,-9 30,-21 40,-37 9,-16 14,-33 15,-53 -1,-19 -6,-36 -15,-51 -10,-15 -23,-28 -40,-37 -16,-9 -35,-14 -56,-14l-252 0 0 -361z"/>
   <path class="fil0" d="M6115 1324c1,-19 8,-34 21,-47 14,-13 30,-20 50,-20 22,0 39,7 53,20 14,13 21,28 21,47l0 523 -145 0 0 -523zm145 1468c0,20 5,38 15,53 9,16 23,28 39,38 16,9 34,14 54,14 21,0 39,-5 56,-14 16,-10 29,-22 39,-38 10,-15 15,-33 15,-53l0 -1468c0,-51 -14,-97 -40,-138 -25,-41 -60,-74 -104,-98 -44,-25 -93,-37 -148,-38 -53,1 -102,13 -145,38 -44,24 -78,57 -104,98 -26,41 -39,87 -40,138l0 1468c1,20 6,38 15,53 10,16 23,28 39,38 16,9 34,14 54,14 21,0 39,-5 56,-14 16,-10 29,-22 39,-38 10,-15 15,-33 15,-53l0 -738 145 0 0 738z"/>
   <path class="fil0" d="M5647 2149c0,-41 -10,-79 -29,-113 -19,-34 -45,-62 -79,-84l0 -5c34,-23 60,-51 79,-85 19,-34 29,-71 29,-113l0 -592c0,-19 -5,-36 -15,-51 -10,-15 -23,-28 -39,-37 -17,-9 -35,-14 -56,-14 -20,0 -38,5 -54,14 -16,9 -29,22 -39,37 -10,15 -15,32 -15,51l0 620c0,19 -7,36 -21,49 -14,13 -31,20 -53,21l-71 0 0 -690c0,-19 -5,-36 -15,-51 -9,-15 -23,-28 -39,-37 -17,-9 -35,-14 -56,-14 -20,0 -38,5 -54,14 -16,9 -29,22 -39,37 -9,15 -14,32 -15,51l0 1635c1,20 6,38 15,53 10,16 23,28 39,38 16,9 34,14 54,14 21,0 39,-5 56,-14 16,-10 30,-22 39,-38 10,-15 15,-33 15,-53l0 -738 71 0c22,0 39,7 53,19 14,13 21,29 21,48l0 671c0,20 5,38 15,53 10,16 23,28 39,38 16,9 34,14 54,14 21,0 39,-5 56,-14 16,-10 29,-22 39,-38 10,-15 15,-33 15,-53l0 -643z"/>
   <path class="fil0" d="M4598 1847l-73 0c-20,-1 -37,-8 -51,-21 -13,-13 -20,-30 -21,-49l0 -620c0,-19 -5,-36 -15,-51 -9,-15 -23,-28 -39,-37 -17,-9 -35,-14 -56,-14 -20,0 -38,5 -54,14 -16,9 -29,22 -39,37 -9,15 -14,32 -15,51l0 620c1,51 14,98 40,139 26,42 60,75 104,99 43,25 92,38 146,39l73 0 0 738c0,20 5,38 15,53 10,16 23,28 39,38 16,9 34,14 54,14 21,0 39,-5 56,-14 16,-10 29,-22 39,-38 10,-15 15,-33 15,-53l0 -1635c0,-19 -5,-36 -15,-51 -10,-15 -23,-28 -39,-37 -17,-9 -35,-14 -56,-14 -20,0 -38,5 -54,14 -16,9 -29,22 -39,37 -10,15 -15,32 -15,51l0 690z"/>
   <path class="fil0" d="M3675 1324c0,-19 7,-34 21,-47 13,-13 30,-20 50,-20 21,0 39,7 52,20 14,13 21,28 21,47l0 1301c0,20 -7,36 -21,49 -13,13 -31,20 -52,21 -20,-1 -37,-8 -50,-21 -14,-13 -21,-29 -21,-49l0 -1301zm-218 1301c0,52 14,98 39,140 26,41 61,75 104,99 44,24 92,37 146,38 55,-1 104,-14 147,-38 44,-24 79,-58 105,-99 26,-42 39,-88 39,-140l0 -1301c0,-51 -13,-97 -39,-138 -26,-41 -61,-74 -105,-98 -43,-25 -92,-37 -147,-38 -54,1 -102,13 -146,38 -43,24 -78,57 -104,98 -25,41 -39,87 -39,138l0 1301z"/>
   <path class="fil0" d="M2707 1064c-20,1 -38,5 -54,14 -16,9 -29,22 -38,37 -10,15 -15,33 -16,51 1,20 6,38 16,54 9,15 22,27 38,37 16,9 34,14 54,14l145 0 0 1521c0,20 5,38 15,53 10,16 23,28 39,38 17,9 35,14 56,14 20,0 38,-5 54,-14 16,-10 29,-22 39,-38 10,-15 15,-33 15,-53l0 -1521 147 0c20,0 38,-5 54,-14 16,-10 29,-22 39,-37 10,-16 14,-34 15,-54 -1,-18 -5,-36 -15,-51 -10,-15 -23,-28 -39,-37 -16,-9 -34,-13 -54,-14l-510 0z"/>
   <g>
    <circle class="fil1" transform="matrix(0.11249 0.0649464 -0.0649465 0.112491 396.59 122.028)" r="939"/>
    <circle class="fil1" transform="matrix(0.14624 0.0844316 -0.0844314 0.146239 745.272 323.339)" r="939"/>
    <circle class="fil1" transform="matrix(0.125467 0.0336187 -0.0336188 0.125467 191.829 616.378)" r="939"/>
    <circle class="fil1" transform="matrix(0.163109 0.043705 -0.0437049 0.163109 580.733 720.584)" r="939"/>
    <circle class="fil1" cx="122" cy="1147" r="122"/>
    <circle class="fil1" cx="525" cy="1147" r="159"/>
    <circle class="fil1" transform="matrix(0.125467 -0.0336187 0.0336188 0.125467 191.839 1677.38)" r="939"/>
    <circle class="fil1" transform="matrix(0.163109 -0.043705 0.0437049 0.163109 580.743 1573.17)" r="939"/>
    <circle class="fil1" transform="matrix(0.0918481 -0.0918481 0.0918482 0.0918482 722.348 2596.23)" r="939"/>
    <circle class="fil1" transform="matrix(0.119404 -0.119404 0.119404 0.119404 1007.05 2311.53)" r="939"/>
    <circle class="fil1" transform="matrix(0.0649464 -0.11249 0.112491 0.0649465 1146.86 2921.96)" r="939"/>
    <circle class="fil1" transform="matrix(0.0844316 -0.14624 0.146239 0.0844314 1348.17 2573.28)" r="939"/>
    <circle class="fil1" transform="matrix(0.0336187 -0.125467 0.125467 0.0336188 1641.21 3126.72)" r="939"/>
    <circle class="fil1" transform="matrix(0.043705 -0.163109 0.163109 0.0437049 1745.41 2737.82)" r="939"/>
    <circle class="fil1" transform="matrix(1.03077E-14 -0.129893 0.129893 1.02973E-14 2171.71 3196.56)" r="939"/>
    <circle class="fil1" transform="matrix(1.334E-14 -0.168863 0.168863 1.33886E-14 2171.71 2793.93)" r="939"/>
    <circle class="fil1" cx="1000" cy="1147" r="195"/>
    <circle class="fil1" transform="matrix(0.103916 -0.179987 0.179984 0.103914 1586.08 2161.2)" r="939"/>
   </g>
   <circle class="fil2" transform="matrix(-7.56339E-15 0.285767 -0.285767 -7.56339E-15 2171.69 1146.86)" r="939"/>
   <circle class="fil2" transform="matrix(0.179987 0.103916 -0.103914 0.179984 1157.35 561.252)" r="939"/>
   <circle class="fil2" transform="matrix(0.213735 0.1234 -0.1234 0.213735 1632.66 836.031)" r="939"/>
   <circle class="fil2" transform="matrix(0.11249 -0.0649464 0.0649465 0.112491 396.609 2171.73)" r="939"/>
   <circle class="fil2" transform="matrix(0.14624 -0.0844316 0.0844314 0.146239 745.291 1970.41)" r="939"/>
   <circle class="fil2" transform="matrix(0.179987 -0.103916 0.103914 0.179984 1157.37 1732.5)" r="939"/>
   <circle class="fil2" transform="matrix(0.213735 -0.1234 0.1234 0.213735 1632.99 1458.25)" r="939"/>
   <circle class="fil2" transform="matrix(1.64938E-14 -0.207831 0.207828 1.64729E-14 2171.71 2318.11)" r="939"/>
   <circle class="fil2" transform="matrix(1.94497E-14 -0.246799 0.2468 1.9533E-14 2172.02 1769.08)" r="939"/>
  </g>
 </g>
</svg>
